<mxfile host="app.diagrams.net" modified="2024-05-07T13:57:13.967Z" agent="Mozilla/5.0 (Macintosh; Intel Mac OS X 10_15_7) AppleWebKit/537.36 (KHTML, like Gecko) Chrome/124.0.0.0 Safari/537.36" version="24.2.0" etag="Oy5q0enux3adgBQun7W5" type="github">
  <diagram name="Page-1" id="Nv02xrtBGk38XoyNXm0f">
    <mxGraphModel>
      <root>
        <mxCell id="0" />
        <mxCell id="1" parent="0" />
      </root>
    </mxGraphModel>
  </diagram>
</mxfile>
